<svg width="80" height="82" viewBox="0 0 80 82" fill="none" xmlns="http://www.w3.org/2000/svg">
<path d="M37.5893 36.8919C36.5536 37.3309 35.7232 37.985 35.1071 38.8631C34.4911 39.7412 34.1786 40.7985 34.1786 42.0439C34.1786 43.6388 34.8482 44.8664 36.1786 45.7355C37.4375 46.5508 38.7589 46.7569 40.1429 46.3448C41.7411 45.8788 42.8214 44.7409 43.3929 42.931C43.6607 42.0977 43.7946 41.1658 43.7946 40.1265V35.6285C42.6696 35.6644 41.6161 35.7719 40.625 35.96C39.6339 36.1482 38.625 36.4618 37.5893 36.8919ZM40 0.738037C17.9107 0.738037 0 18.7119 0 40.8791C0 63.0463 17.9107 81.0202 40 81.0202C62.0893 81.0202 80 63.0463 80 40.8791C80 18.7119 62.0893 0.738037 40 0.738037ZM43.1964 24.2761C42.5536 23.2995 41.4018 22.8067 39.7411 22.8067C39.625 22.8067 39.4732 22.8156 39.2679 22.8336C39.0714 22.8515 38.6786 22.968 38.1161 23.1651C37.5511 23.3679 37.0141 23.6419 36.5179 23.9804C36.0268 24.3209 35.4911 24.8764 34.9107 25.6291C34.3393 26.3907 33.8839 27.2777 33.5446 28.2992L25.1518 27.5465C25.1518 26.4355 25.3661 25.3334 25.7768 24.2403C26.1964 23.1472 26.8304 22.0988 27.6875 21.1043C28.5446 20.1007 29.5714 19.2226 30.7679 18.47C31.9643 17.7084 33.4107 17.1081 35.0893 16.6511C36.7768 16.1941 38.5804 15.9701 40.5268 15.9701C42.4286 15.9701 44.1518 16.2031 45.6875 16.6601C47.2232 17.126 48.4643 17.6905 49.3839 18.3714C50.27 19.0129 51.0503 19.79 51.6964 20.6742C52.3125 21.5343 52.7411 22.3318 52.9821 23.0665C53.2232 23.8012 53.3393 24.4732 53.3393 25.1094V41.4615C53.3393 42.035 53.4643 42.6263 53.7232 43.2356C53.9821 43.8449 54.2857 44.3825 54.6339 44.8484C54.9821 45.3144 55.3393 45.7355 55.7054 46.1297C56.0714 46.515 56.3839 46.8196 56.6518 47.0168L57.0179 47.3214L50.5446 53.5397C49.7857 52.8498 49.0357 52.1598 48.2946 51.443C47.5536 50.7262 47 50.1886 46.6429 49.8213L46.0982 49.2657C45.8839 49.0597 45.6518 48.755 45.3839 48.3518C44.6607 49.4449 43.7321 50.3947 42.6071 51.2011C41.4732 52.0075 40.2589 52.5989 38.9732 52.9663C37.6786 53.3336 36.3482 53.5487 34.9821 53.6024C33.6161 53.6562 32.3036 53.468 31.0625 53.02C29.8214 52.572 28.6964 51.9717 27.7054 51.2011C26.7143 50.4306 25.9286 49.3912 25.3393 48.0651C24.75 46.739 24.4554 45.2427 24.4554 43.5492C24.4554 41.9902 24.7232 40.5655 25.25 39.2753C25.7857 37.9761 26.4643 36.9009 27.3036 36.0407C28.1429 35.1805 29.1518 34.41 30.3393 33.7379C31.5268 33.0659 32.6964 32.5373 33.8393 32.152C34.9821 31.7757 36.2143 31.4531 37.5446 31.1933C38.875 30.9335 40.0089 30.7632 40.9554 30.6826C41.9018 30.6019 42.8482 30.5392 43.7946 30.5034V26.9731C43.7946 25.7635 43.5893 24.8675 43.1964 24.2761ZM59.3125 58.2885C59.0625 58.5842 58.6429 58.9874 58.0536 59.4981C57.4643 60.0089 56.5536 60.6361 55.3304 61.3887C54.1071 62.1414 52.7589 62.8223 51.3125 63.4406C49.8571 64.0588 48.0714 64.5964 45.9464 65.0534C43.8304 65.5103 41.6429 65.7343 39.4018 65.7343C37.1339 65.7343 34.875 65.4476 32.6071 64.8742C30.3393 64.3007 28.3571 63.5929 26.6429 62.7506C24.9375 61.9084 23.2857 60.9407 21.7232 59.8655C20.1518 58.7813 18.8929 57.8136 17.9375 56.9535C16.9911 56.0933 16.1875 55.2779 15.5446 54.5253C15.3929 54.3551 15.2946 54.2027 15.2589 54.0683C15.2232 53.9339 15.2321 53.8175 15.2857 53.7368C15.3393 53.6562 15.4196 53.5935 15.5179 53.5397C15.6245 53.4922 15.7418 53.4738 15.8578 53.4864C15.9738 53.499 16.0845 53.5421 16.1786 53.6114C19.8304 55.7797 22.6875 57.3119 24.7411 58.2168C32.1429 61.4783 39.7411 62.3116 47.5357 60.7167C51.1518 59.973 54.8661 58.7276 58.6875 56.9714C58.9732 56.8639 59.2232 56.837 59.4286 56.8908C59.6339 56.9445 59.7411 57.1058 59.7411 57.3746C59.7411 57.6255 59.5982 57.9391 59.3125 58.2885ZM64.6607 55.6901C64.5 56.6847 64.2232 57.6255 63.8482 58.5394C63.2054 60.0716 62.3929 61.2274 61.4286 61.9801C61.1071 62.2399 60.8571 62.3206 60.6875 62.231C60.5179 62.1414 60.5179 61.9174 60.6875 61.5679C61.0893 60.7346 61.5089 59.6146 61.9554 58.19C62.4018 56.7743 62.4643 55.8604 62.1429 55.4571C62.0446 55.3227 61.9018 55.2242 61.6964 55.1346C61.5 55.0539 61.2411 55.0002 60.9286 54.9643C60.6161 54.9285 60.3304 54.9106 60.0893 54.8927C59.8393 54.8747 59.5089 54.8747 59.0893 54.8927C58.6696 54.9106 58.375 54.9285 58.1875 54.9464C57.679 54.9962 57.1701 55.041 56.6607 55.0808C56.5446 55.0987 56.4196 55.1167 56.2946 55.1256C56.1607 55.1346 56.0536 55.1435 55.9821 55.1525L55.7411 55.1794C55.6518 55.1883 55.5893 55.1973 55.5446 55.1973H55.2589L55.1696 55.1794L55.1161 55.1346L55.0714 55.0539C54.9554 54.7583 55.4018 54.3909 56.4107 53.9429C57.4196 53.4949 58.4018 53.2171 59.3482 53.1096C60.2232 52.9752 61.25 52.9752 62.4286 53.0827C63.6071 53.1903 64.3304 53.4142 64.5982 53.7458C64.8036 54.0594 64.8214 54.7045 64.6607 55.6901Z" fill="#23333F"/>
</svg>
