<svg width="54" height="54" viewBox="0 0 54 54" fill="none" xmlns="http://www.w3.org/2000/svg">
<circle cx="27" cy="27" r="27" fill="#232F3F"/>
<path d="M35.7723 34.7679C35.9062 34.7143 36.0223 34.7009 36.1205 34.7277C36.2188 34.7545 36.2679 34.8326 36.2679 34.9621C36.2679 35.0915 36.2009 35.2411 36.067 35.4107C35.9509 35.5536 35.7545 35.7478 35.4777 35.9933C35.2009 36.2388 34.7746 36.5424 34.1987 36.904C33.6228 37.2656 32.9933 37.596 32.3103 37.8951C31.6272 38.1942 30.7879 38.4531 29.7924 38.6719C28.7969 38.8906 27.7723 39 26.7187 39C25.6562 39 24.5937 38.8616 23.5312 38.5848C22.4687 38.308 21.5357 37.9665 20.7321 37.5603C19.9286 37.154 19.1585 36.6897 18.4219 36.1674C17.6853 35.6451 17.0937 35.1763 16.6473 34.7612C16.2009 34.346 15.8259 33.9554 15.5223 33.5893C15.4509 33.5089 15.4062 33.4353 15.3884 33.3683C15.3705 33.3013 15.375 33.2478 15.4018 33.2076C15.4286 33.1674 15.4643 33.1362 15.5089 33.1138C15.5536 33.0915 15.6049 33.0826 15.6629 33.0871C15.721 33.0915 15.7723 33.1116 15.817 33.1473C17.5312 34.192 18.8705 34.933 19.8348 35.3705C23.308 36.942 26.875 37.3438 30.5357 36.5759C32.2321 36.2188 33.9777 35.6161 35.7723 34.7679ZM38.5446 33.2277C38.6429 33.3705 38.654 33.6808 38.5781 34.1585C38.5022 34.6362 38.375 35.0938 38.1964 35.5312C37.8929 36.2723 37.5134 36.8259 37.058 37.192C36.9062 37.317 36.7902 37.3571 36.7098 37.3125C36.6295 37.2679 36.6295 37.1607 36.7098 36.9911C36.8973 36.5893 37.096 36.0469 37.3058 35.3638C37.5156 34.6808 37.5446 34.2411 37.3929 34.0446C37.3482 33.9821 37.279 33.9308 37.1853 33.8906C37.0915 33.8504 36.971 33.8237 36.8237 33.8103C36.6763 33.7969 36.5446 33.7857 36.4286 33.7768C36.3125 33.7679 36.1562 33.7679 35.9598 33.7768C35.7634 33.7857 35.6228 33.7946 35.5379 33.8036C35.4531 33.8125 35.3147 33.8259 35.1228 33.8438C34.9308 33.8616 34.8304 33.8705 34.8214 33.8705C34.7679 33.8795 34.7098 33.8862 34.6473 33.8906C34.5848 33.8951 34.5357 33.8996 34.5 33.904C34.4643 33.9085 34.4263 33.9129 34.3862 33.9174C34.346 33.9219 34.3147 33.9241 34.2924 33.9241H34.1585L34.1183 33.9174L34.0915 33.8973L34.0714 33.8571C34.0179 33.7143 34.2277 33.5357 34.7009 33.3214C35.1741 33.1071 35.6339 32.9732 36.0804 32.9196C36.4911 32.8571 36.9732 32.8527 37.5268 32.9062C38.0804 32.9598 38.4196 33.067 38.5446 33.2277ZM33.2679 27.2946C33.2679 27.5714 33.3281 27.8571 33.4487 28.1518C33.5692 28.4464 33.7121 28.7054 33.8772 28.9286C34.0424 29.1518 34.2098 29.3571 34.3795 29.5446C34.5491 29.7321 34.6964 29.875 34.8214 29.9732L34.9955 30.1205L31.9554 33.1205C31.5982 32.7902 31.2455 32.4531 30.8973 32.1094C30.5491 31.7656 30.2902 31.5045 30.1205 31.3259L29.8661 31.058C29.7679 30.9598 29.6562 30.8125 29.5312 30.6161C29.192 31.1429 28.7567 31.6004 28.2254 31.9888C27.6942 32.3772 27.125 32.6607 26.5179 32.8393C25.9107 33.0179 25.2857 33.1205 24.6429 33.1473C24 33.1741 23.3862 33.0804 22.8013 32.8661C22.2165 32.6518 21.692 32.3594 21.2277 31.9888C20.7634 31.6183 20.3929 31.1138 20.1161 30.4754C19.8393 29.8371 19.7009 29.1116 19.7009 28.2991C19.7009 27.5491 19.8259 26.8616 20.0759 26.2366C20.3259 25.6116 20.6473 25.0915 21.0402 24.6763C21.433 24.2612 21.9085 23.8906 22.4665 23.5647C23.0246 23.2388 23.5714 22.9844 24.1071 22.8013C24.6429 22.6183 25.2232 22.4643 25.8482 22.3393C26.4732 22.2143 27.0067 22.1317 27.4487 22.0915C27.8906 22.0513 28.3348 22.0223 28.7812 22.0045V20.3036C28.7812 19.7232 28.6875 19.2902 28.5 19.0045C28.1964 18.5312 27.6562 18.2946 26.8795 18.2946C26.8259 18.2946 26.7522 18.2991 26.6585 18.308C26.5647 18.317 26.3839 18.3705 26.1161 18.4688C25.8482 18.567 25.5982 18.6987 25.3661 18.8638C25.1339 19.029 24.8839 19.2946 24.6161 19.6607C24.3482 20.0268 24.1339 20.4554 23.9732 20.9464L20.0357 20.5848C20.0357 20.0491 20.1339 19.5179 20.3304 18.9911C20.5268 18.4643 20.8259 17.9598 21.2277 17.4777C21.6295 16.9955 22.1116 16.5714 22.6741 16.2054C23.2366 15.8393 23.9129 15.5469 24.7031 15.3281C25.4933 15.1094 26.3437 15 27.2545 15C28.1473 15 28.9554 15.1116 29.6786 15.3348C30.4018 15.558 30.9799 15.8326 31.4129 16.1585C31.846 16.4844 32.2076 16.8549 32.4978 17.2701C32.7879 17.6853 32.9888 18.0692 33.1004 18.4219C33.2121 18.7746 33.2679 19.1027 33.2679 19.4062V27.2946ZM24.2679 27.5759C24.2679 28.3438 24.5804 28.9375 25.2054 29.3571C25.7946 29.75 26.4152 29.8482 27.067 29.6518C27.817 29.4286 28.3259 28.8795 28.5937 28.0045C28.7187 27.6027 28.7812 27.1518 28.7812 26.6518V24.4821C28.2545 24.5 27.7589 24.5536 27.2946 24.6429C26.8304 24.7321 26.3549 24.8817 25.8683 25.0915C25.3817 25.3013 24.9933 25.6183 24.7031 26.0424C24.4129 26.4665 24.2679 26.9777 24.2679 27.5759Z" fill="#FF9900"/>
</svg>
