<svg width="30" height="21" viewBox="0 0 30 21" fill="none" xmlns="http://www.w3.org/2000/svg">
<path d="M26.4861 1.04765L25.4326 6.99934L21.7269 2.32274L18.2093 3.26519L19.1457 4.26601C19.0537 4.29065 18.8782 4.3254 18.6191 4.37028C18.36 4.41515 18.1615 4.45607 18.0235 4.49303C17.0579 4.75174 16.3549 5.16098 15.9145 5.72074C15.3697 6.25938 15.2397 7.05505 15.5244 8.10776L17.9384 7.46097C17.6909 6.54558 17.889 6.00164 18.5328 5.82916C19.1765 5.65669 19.616 6.00527 19.8511 6.87489L20.0368 7.56144C18.1975 8.05423 17.0638 8.60339 16.6358 9.20893C16.077 8.96596 15.4987 8.92456 14.9009 9.08472C13.9813 9.33111 13.4011 9.83013 13.1606 10.5818L13.0916 10.6003L11.8477 6.00039L9.43365 6.64718L10.5661 10.8351C10.1948 10.7383 9.72079 10.718 9.14424 10.7743C8.07075 10.8165 6.91323 11.0039 5.67171 11.3365C3.00472 12.0511 1.35022 12.8625 0.708187 13.7708C0.0661559 14.6791 -0.0815832 15.774 0.264969 17.0556C0.636276 18.4287 1.3286 19.3476 2.34194 19.8124C3.35527 20.2772 5.19543 20.1523 7.86242 19.4378C9.10394 19.1052 10.1996 18.6889 11.1493 18.189C11.4128 18.0693 11.8125 17.815 12.3484 17.426L12.8311 19.211L15.1762 18.5827L14.9163 17.6215C15.5405 18.2888 16.3355 18.493 17.3011 18.2343C18.8645 17.8154 19.3828 16.4494 18.8559 14.1363L19.4077 13.9885C20.4653 13.7051 21.1064 13.067 21.3311 12.0742L21.4001 12.0557L21.8536 13.1859L24.1297 12.5761C23.8398 11.8684 23.6452 11.3315 23.5462 10.9653L22.915 8.63103L24.488 10.3448L25.6762 14.7387L28.849 13.8887L27.6608 9.49477L29.7279 0.179113L26.4861 1.04765ZM6.04301 12.7096C6.68677 12.5371 7.21202 12.5191 7.61877 12.6556C8.02553 12.792 8.26515 12.9487 8.33765 13.1256C8.41015 13.3026 8.49591 13.5741 8.59492 13.9403L4.52548 15.0306C4.43884 14.7102 4.38226 14.4554 4.35574 14.2661C4.32923 14.0769 4.44287 13.8133 4.69668 13.4753C4.95048 13.1373 5.39926 12.8821 6.04301 12.7096ZM10.4809 15.7175L9.0325 16.1055C9.29241 17.0667 8.77862 17.7198 7.49111 18.0647C6.15762 18.422 5.28047 17.8225 4.85965 16.2663L11.5501 14.4738L11.7914 15.3663L10.4809 15.7175ZM16.1076 13.5473C16.4294 14.7373 16.5833 15.5796 16.5691 16.0743C16.5549 16.569 16.3409 16.8717 15.927 16.9826C15.5132 17.0935 15.1754 16.9385 14.9137 16.5178C14.652 16.0971 14.3602 15.2917 14.0384 14.1017C13.8899 13.5524 13.79 13.1374 13.7388 12.8566C13.6875 12.5759 13.6415 12.2691 13.6009 11.9364C13.5602 11.6037 13.6049 11.3586 13.7349 11.201C13.8649 11.0435 14.0448 10.9339 14.2747 10.8723C14.5046 10.8107 14.7155 10.8156 14.9074 10.8869C15.0993 10.9582 15.2616 11.1479 15.3942 11.4559C15.5268 11.764 15.6417 12.0523 15.739 12.3207C15.8362 12.5892 15.9591 12.998 16.1076 13.5473ZM20.0339 12.2009C19.3901 12.3733 18.9445 12.0019 18.6969 11.0865C18.6227 10.8118 18.5953 10.5738 18.6147 10.3722C18.6342 10.1706 18.6545 10.0179 18.6758 9.91407C18.697 9.81021 18.8018 9.69623 18.9902 9.57214L19.3669 9.32395L19.9001 9.10746L20.4081 8.93454L20.8258 10.4793L20.8709 11.0562L20.7846 11.5579L20.5233 11.9593L20.0339 12.2009Z" fill="white"/>
</svg>
