<svg width="1409" height="1366" viewBox="0 0 1409 1366" fill="none" xmlns="http://www.w3.org/2000/svg">
<g opacity="0.55">
<mask id="mask0_20_6277" style="mask-type:alpha" maskUnits="userSpaceOnUse" x="-64" y="-311" width="1473" height="1677">
<g clip-path="url(#clip0_20_6277)">
<path d="M1245.63 890.638L1245.7 892.613C1172.83 894.966 1114.27 886.638 1066.6 867.077C1023.94 849.538 990.988 823.34 965.836 786.925C919.065 719.206 907.521 628.887 895.253 533.181C879.228 407.988 862.571 278.362 760.8 202.706C670.696 135.713 618.901 188.717 553.324 255.819C504.57 305.723 449.286 362.269 366.452 378.988C270.783 398.259 155.89 360.244 15.191 262.757L16.3269 261.123C156.545 358.308 270.945 396.209 366.037 376.997C448.205 360.449 503.322 304.091 551.9 254.411C583.799 221.755 613.932 190.913 646.88 177.391C683.464 162.38 720.017 169.877 761.972 201.082C864.402 277.244 881.051 407.332 897.205 532.909C909.506 628.352 921.029 718.53 967.424 785.703C1020.01 861.798 1108.37 895.115 1245.63 890.638Z" fill="#FF1D03"/>
<path d="M1256.71 896.314L1256.71 898.116C992.121 897.639 957.915 735.765 921.706 564.383C894.613 436.17 866.582 303.578 741.433 226.935C641.054 165.446 588.644 211.93 527.967 265.754C484.151 304.618 434.502 348.683 359.02 356.848C272.474 366.237 165.437 326.896 31.7952 236.548L32.8103 235.076C166.08 325.15 272.733 364.408 358.888 355.03C433.723 346.963 483.251 303.06 526.851 264.351C588.058 210.068 640.907 163.178 742.481 225.413C868.308 302.489 896.383 435.423 923.507 563.955C959.532 734.648 993.591 895.843 1256.71 896.314Z" fill="#FF1D03"/>
<path d="M1267.78 901.99L1267.71 903.618C1163.95 899.081 1092.26 867.416 1042.03 803.984C997.409 747.613 975.649 673.703 952.624 595.483C913.996 464.182 874.045 328.419 722.019 251.19C611.974 195.252 559.659 233.217 504.31 273.393C424.063 331.609 333.122 397.62 48.3307 210.379L49.2346 209.032C333.087 395.654 423.574 329.967 503.296 272.114C559.078 231.628 611.779 193.379 722.739 249.736C791.035 284.464 842.911 334.599 881.526 402.964C915.526 463.39 935.216 530.274 954.254 594.969C999.186 747.779 1041.63 892.094 1267.78 901.99Z" fill="#FF1D03"/>
<path d="M1278.83 907.679L1278.72 909.121C1191.32 900.728 1128.54 870.15 1081.2 812.935C1038.99 761.92 1014.31 696.083 988.133 626.377C940.007 498.114 885.396 352.635 702.625 275.374C583.81 225.11 534.558 251.223 482.457 278.86C410.306 317.155 335.682 356.725 64.9349 184.17L65.7278 182.949C335.761 355.06 410.005 315.679 481.788 277.596C534.211 249.774 583.715 223.515 703.175 274.048C785.167 308.721 848.458 359.722 896.698 429.985C939.219 491.877 964.783 559.985 989.49 625.868C1042.56 767.254 1088.39 889.419 1278.83 907.679Z" fill="#FF1D03"/>
<path d="M1289.92 913.378L1289.7 914.637C1217.99 902.963 1164.33 873.684 1120.87 822.449C1082.07 776.683 1055.92 718.784 1028.26 657.479C968.783 525.714 901.33 376.314 683.185 299.583C557.867 255.427 507.602 269.934 463.345 282.774C397.842 301.709 341.453 317.949 81.503 157.952L82.1749 156.892C341.552 316.425 397.84 300.275 462.88 281.545C507.433 268.687 557.82 254.232 683.578 298.41C902.268 375.344 969.871 525.056 1029.4 656.971C1085.37 780.919 1133.7 887.981 1289.92 913.378Z" fill="#FF1D03"/>
<path d="M1300.97 919.068L1300.7 920.139C1176.57 889.049 1128.58 796.456 1073.05 689.307C1002.6 553.366 922.711 399.261 663.693 323.702C541.385 288.043 489.924 287.504 452.497 287.021C390.301 286.263 359.11 285.938 98.0447 131.688L98.5826 130.766C359.468 284.967 390.576 285.31 452.529 285.964C490.169 286.446 541.588 287.07 664.004 322.758C779.683 356.468 869.983 409.078 940.065 483.598C1001.38 548.816 1038.28 619.975 1073.86 688.866C1129.45 795.74 1177.29 888.08 1300.97 919.068Z" fill="#FF1D03"/>
<path d="M1312.03 924.78L1311.7 925.642C1218.3 890.957 1173.98 812.964 1122.55 722.725C1046.1 588.451 950.945 421.368 644.306 348.003C609.746 339.723 581.393 333.084 556.395 327.227C422.064 295.791 422.064 295.791 356.619 252.39C317.104 226.314 251.237 182.607 114.669 105.62L115.119 104.81C251.687 181.797 317.699 225.543 357.131 251.636C422.474 294.913 422.475 294.913 556.615 326.337C581.626 332.216 609.956 338.868 644.502 347.126C781.259 379.85 887.636 433.353 969.738 510.741C1041.28 578.152 1084.89 654.753 1123.37 722.344C1174.63 812.403 1218.96 890.182 1312.03 924.78Z" fill="#FF1D03"/>
<path d="M1323.06 930.483L1322.73 931.131C1257.68 895.354 1220.08 832.181 1176.54 759.05C1092.63 618.052 988.176 442.59 624.816 372.18C532.715 354.313 476.173 338.832 441.419 321.742C408.11 305.406 394.434 287.757 377.045 265.316C346.509 225.93 304.792 171.945 131.224 79.3786L131.566 78.7534C305.178 171.447 347.048 225.435 377.611 264.867C394.911 287.207 408.587 304.856 441.748 321.093C476.413 338.082 532.922 353.613 624.951 371.461C988.637 441.957 1093.16 617.534 1177.15 758.67C1220.76 831.666 1258.2 894.813 1323.06 930.483Z" fill="#FF1D03"/>
<path d="M1334.1 936.208L1333.76 936.62C1293.91 903.249 1266.22 855.593 1234.05 800.309C1151.21 657.871 1037.74 462.771 605.35 396.344C406.415 365.754 388.948 321.572 364.819 260.397C343.186 205.665 316.186 137.347 147.838 53.134L148.082 52.6568C316.602 136.954 343.614 205.295 365.357 260.27C389.462 321.245 406.9 365.322 605.522 395.848C797.537 425.361 943.045 481.663 1050.4 567.999C1142.86 642.462 1191.57 726.201 1234.51 800.044C1266.65 855.282 1294.4 902.971 1334.1 936.208Z" fill="#FF1D03"/>
<path d="M1253.21 775.5C1268.23 801.51 1280.99 826.684 1292.91 850.142C1310.14 884.07 1326.43 916.135 1345.09 941.901L1344.79 942.073C1326.05 916.228 1309.8 884.21 1292.55 850.259C1258.55 783.264 1219.1 705.571 1143.65 633.972C1173.22 662.059 1199.72 693.209 1222.7 726.898C1233.9 743.226 1243.97 759.504 1253.21 775.5ZM988.625 527.673C892.031 479.888 762.783 441.423 585.874 420.544C489.87 409.208 429.166 388.797 394.807 356.292C363.755 326.92 356.977 290.133 349.787 251.201C336.696 180.231 321.854 99.8215 164.364 27.0009L164.51 26.6719C234.819 59.1679 282.924 96.2036 311.567 139.831C336.683 178.038 343.518 215.189 350.138 251.12C357.302 290.007 364.099 326.722 395.052 356.028C429.349 388.477 490.003 408.856 585.912 420.186C645.21 426.995 704.105 436.943 762.346 449.986C810.657 460.819 858.217 474.758 904.73 491.715C933.317 502.197 961.322 514.2 988.625 527.673Z" fill="#FF1D03"/>
<path d="M1305.54 813.182C1322.45 849.465 1334.37 884.294 1345.09 915.899C1348.88 927.006 1352.46 937.497 1356.07 947.572L1355.91 947.664C1352.27 937.544 1348.72 927.099 1344.92 915.969C1334.07 884.158 1322.16 849.233 1305.54 813.182ZM789.723 475.797C715.895 461.237 641.299 450.88 566.293 444.774C541.608 442.779 517.061 439.341 492.78 434.478C473.801 430.679 455.178 425.281 437.112 418.34C407.118 406.476 384.862 391.123 369.07 371.396C339.562 334.532 337.239 287.931 334.763 238.577C332.496 192.922 330.051 143.886 304.079 98.9009C282.909 62.2341 246.038 28.1853 180.817 0.84874L180.955 0.76931C197.561 7.63738 213.64 15.716 229.061 24.9398C242.1 32.6767 254.418 41.5695 265.864 51.5109C284.763 67.923 300.123 88.0066 311.014 110.542C330.856 151.794 333.064 195.864 335.173 238.494C337.283 281.123 339.352 321.881 359.013 355.936C362.11 361.308 365.613 366.436 369.49 371.276C402.5 412.565 465.143 435.859 566.591 444.602C638.407 450.525 709.848 460.33 780.599 473.976L789.723 475.797Z" fill="#FF1D03"/>
</g>
</mask>
<g mask="url(#mask0_20_6277)">
<rect x="98" y="142.425" width="1440" height="802" fill="url(#paint0_linear_20_6277)"/>
</g>
</g>
<defs>
<linearGradient id="paint0_linear_20_6277" x1="98" y1="944.425" x2="1538" y2="944.425" gradientUnits="userSpaceOnUse">
<stop stop-color="#2196F3"/>
<stop offset="0.484375" stop-color="#94FFF5"/>
<stop offset="1" stop-color="#881FFE"/>
</linearGradient>
<clipPath id="clip0_20_6277">
<rect width="1432.28" height="873.082" fill="white" transform="translate(652.141 1365.93) rotate(-120)"/>
</clipPath>
</defs>
</svg>
