<svg width="257" height="54" viewBox="0 0 257 54" fill="none" xmlns="http://www.w3.org/2000/svg">
<g filter="url(#filter0_d_20_6390)">
<path d="M4 45H17.0812C19.9413 45 22.4038 42.9812 22.9647 40.1767L23.4127 37.9366C24.0266 34.8671 26.8971 32.7854 30.0054 33.1554L41.0437 34.4695C43.6859 34.784 46.2197 33.3208 47.2678 30.8751L49.7727 25.0303C51.3709 21.3012 56.1324 20.2003 59.2052 22.8493L64.522 27.4328C66.3305 28.9918 68.8912 29.3301 71.0426 28.2943L78.567 24.6714C80.1143 23.9265 81.9066 23.8802 83.4902 24.5443L92.7853 28.4422C95.0321 29.3844 97.6255 28.8745 99.3483 27.1517L103.762 22.7378C105.163 21.3374 107.164 20.7182 109.111 21.0832L117.03 22.5682C119.902 23.1066 122.743 21.4986 123.761 18.7601L125.971 12.8095C127.283 9.27703 131.488 7.81423 134.709 9.76986L141.065 13.6287C142.004 14.1986 143.081 14.5 144.179 14.5H150.91C153.121 14.5 155.152 15.7154 156.197 17.6631L162.675 29.7349C164.237 32.6463 167.859 33.7468 170.777 32.1967L178.234 28.2348C180.237 27.1712 182.667 27.3269 184.517 28.6374L187.587 30.8119C190.657 32.9865 194.948 31.8319 196.512 28.4104L199.898 21.0054C200.874 18.8698 203.006 17.5 205.354 17.5H213.417C214.766 17.5 216.076 17.0453 217.135 16.2093L223.365 11.2907C224.424 10.4547 225.734 10 227.083 10H233.109C234.644 10 236.121 9.41154 237.236 8.35572L243.264 2.64429C244.379 1.58846 245.856 1 247.391 1H252.5" stroke="#FF7F5C" stroke-width="2"/>
</g>
<defs>
<filter id="filter0_d_20_6390" x="0" y="0" width="256.5" height="54" filterUnits="userSpaceOnUse" color-interpolation-filters="sRGB">
<feFlood flood-opacity="0" result="BackgroundImageFix"/>
<feColorMatrix in="SourceAlpha" type="matrix" values="0 0 0 0 0 0 0 0 0 0 0 0 0 0 0 0 0 0 127 0" result="hardAlpha"/>
<feOffset dy="4"/>
<feGaussianBlur stdDeviation="2"/>
<feComposite in2="hardAlpha" operator="out"/>
<feColorMatrix type="matrix" values="0 0 0 0 1 0 0 0 0 0.498039 0 0 0 0 0.360784 0 0 0 0.25 0"/>
<feBlend mode="normal" in2="BackgroundImageFix" result="effect1_dropShadow_20_6390"/>
<feBlend mode="normal" in="SourceGraphic" in2="effect1_dropShadow_20_6390" result="shape"/>
</filter>
</defs>
</svg>
