<svg width="40" height="40" viewBox="0 0 40 40" fill="none" xmlns="http://www.w3.org/2000/svg">
<path d="M18.7527 19.6005C18.5294 20.3392 18.1627 21.0267 17.6736 21.6237C17.1846 22.2207 16.5828 22.7155 15.9025 23.0799C15.2222 23.4443 14.4768 23.6712 13.7088 23.7475C12.9409 23.8238 12.1654 23.7482 11.4267 23.5248C10.689 23.2978 10.0033 22.9278 9.40867 22.4358C8.81403 21.9438 8.32213 21.3395 7.96105 20.6573C7.59998 19.9752 7.3768 19.2287 7.30427 18.4603C7.23174 17.6919 7.31128 16.9168 7.53833 16.1791V16.1791C7.76169 15.4404 8.12835 14.7529 8.6174 14.1559C9.10644 13.5589 9.70829 13.0641 10.3886 12.6997C11.0689 12.3353 11.8142 12.1084 12.5822 12.0321C13.3502 11.9557 14.1256 12.0314 14.8643 12.2548V12.2548C15.602 12.4817 16.2877 12.8518 16.8824 13.3438C17.477 13.8358 17.9689 14.4401 18.33 15.1222C18.6911 15.8044 18.9142 16.5509 18.9868 17.3193C19.0593 18.0877 18.9798 18.8628 18.7527 19.6005V19.6005ZM14.7323 18.3739C14.6351 18.687 14.4474 18.9643 14.1928 19.1708C13.9381 19.3773 13.628 19.5038 13.3016 19.5342C12.9752 19.5646 12.647 19.4977 12.3586 19.3418C12.0702 19.186 11.8344 18.9481 11.681 18.6584C11.5277 18.3686 11.4635 18.04 11.4968 17.7138C11.53 17.3876 11.6591 17.0787 11.8678 16.8258C12.0765 16.573 12.3554 16.3876 12.6693 16.2931C12.9833 16.1986 13.3182 16.1993 13.6317 16.2949C13.8406 16.3591 14.0348 16.4638 14.2031 16.603C14.3715 16.7423 14.5108 16.9133 14.6131 17.1064C14.7153 17.2995 14.7786 17.5108 14.7991 17.7283C14.8197 17.9458 14.7972 18.1653 14.733 18.3741L14.7323 18.3739Z" stroke="white" stroke-linecap="round" stroke-linejoin="round"/>
<path d="M25.7005 14.2427L22.7973 13.357C22.6054 13.2984 22.4023 13.4066 22.3437 13.5985L18.3816 26.5855C18.323 26.7775 18.4312 26.9805 18.6231 27.0391L21.5263 27.9248C21.7182 27.9834 21.9213 27.8753 21.9799 27.6833L25.942 14.6963C26.0006 14.5043 25.8924 14.3013 25.7005 14.2427Z" stroke="white" stroke-linecap="round" stroke-linejoin="round"/>
<path d="M26.6193 18.2449L25.9224 20.5289L26.7178 22.0297L25.2198 22.8321L24.5229 25.1162L26.7955 25.8095L28.2923 25.0067L29.0872 26.5087L31.3585 27.2017L32.0554 24.9176L31.2617 23.416L32.7581 22.6144L33.4549 20.3303L31.1836 19.6374L29.6855 20.4398L28.8919 18.9382L26.6193 18.2449Z" stroke="white" stroke-linecap="round" stroke-linejoin="round"/>
</svg>
