<svg width="39" height="40" viewBox="0 0 39 40" fill="none" xmlns="http://www.w3.org/2000/svg">
<g clip-path="url(#clip0_20_6368)">
<path d="M32.7489 14.5037C32.7846 14.3462 32.6845 14.214 32.5795 14.1642C31.8024 13.8038 31.0251 13.4439 30.2477 13.0845C30.2477 13.0845 29.2498 10.9077 29.1408 10.6673C29.0317 10.427 28.6705 10.352 28.5235 10.3412C28.5018 10.3397 28.1357 10.3177 27.5299 10.2819C27.5727 8.55304 27.1625 6.79551 25.5125 6.17592C25.4669 6.15882 25.4193 6.14306 25.3715 6.12812C25.1352 5.33131 24.6552 4.84342 24.1531 4.65488C20.3094 3.21155 16.6687 7.32701 15.1761 9.55256C13.5087 9.45452 12.3241 9.38512 12.1726 9.3768C11.2408 9.32526 11.2045 9.34163 10.8001 10.0861C10.4944 10.6499 1.97844 26.7003 1.97844 26.7003L17.7802 36.2677L27.7382 37.7337C27.7382 37.7337 32.7131 14.6612 32.7491 14.5038L32.7489 14.5037ZM26.4813 10.2197L24.8759 10.1247C24.9145 10.0236 24.9524 9.92403 24.9934 9.81497C25.3503 8.86454 25.5057 8.04974 25.5218 7.36363C26.332 7.78958 26.535 8.96956 26.4813 10.2197ZM24.3964 7.15606C24.4104 7.8371 24.2449 8.7448 23.8142 9.89181C23.7922 9.95049 23.7715 10.004 23.7506 10.058C22.7064 9.99653 21.5719 9.92943 20.4348 9.8625C21.8356 7.86985 23.3081 7.20627 24.3964 7.15606ZM23.6604 5.64621C23.8263 5.7085 23.9722 5.82758 24.0908 5.99772C22.6413 6.11482 20.7727 7.07892 19.1204 9.78497L16.4993 9.63048C17.9875 7.652 20.8994 4.60947 23.6603 5.64617L23.6604 5.64621Z" fill="#95BF46"/>
<path d="M32.5795 14.1639C31.8025 13.8036 31.0252 13.4437 30.2477 13.0843C30.2477 13.0843 29.2498 10.9075 29.1409 10.6671C29.0999 10.5775 29.0243 10.511 28.9376 10.4621L17.7811 36.2676L27.7383 37.7334C27.7383 37.7334 32.7131 14.6609 32.749 14.5035C32.7846 14.346 32.6845 14.2138 32.5795 14.1639Z" fill="#5E8E3E"/>
<path d="M21.846 15.9401L19.4419 18.8917C19.4419 18.8917 18.6463 17.9871 17.4267 17.5291C15.6387 16.8577 15.1274 17.946 15.0212 18.2287C14.4418 19.7715 18.2416 21.8729 16.8846 25.4866C15.8169 28.3298 13.3262 29.4835 10.8947 28.5705C7.9769 27.4748 7.16665 25.0986 7.16665 25.0986L8.91718 22.8107C8.91718 22.8107 9.95651 24.7034 11.2507 25.1894C12.0964 25.507 12.6904 24.9703 12.8731 24.4838C13.6288 22.4713 10.3631 21.1426 11.6049 17.8357C12.65 15.0524 15.6591 13.1091 19.6917 14.6234C21.2455 15.2068 21.846 15.9401 21.846 15.9401Z" fill="white"/>
</g>
<defs>
<clipPath id="clip0_20_6368">
<rect width="28.0548" height="32" fill="white" transform="translate(12) rotate(20.5814)"/>
</clipPath>
</defs>
</svg>
