<svg width="621" height="698" viewBox="0 0 621 698" fill="none" xmlns="http://www.w3.org/2000/svg">
<path d="M145.916 697.13L129.2 692.594L141.486 680.386L145.916 697.13ZM618.698 71.9473C616.593 70.8001 614.49 69.6687 612.39 68.5528L613.797 65.9034C615.907 67.0243 618.019 68.1608 620.134 69.313L618.698 71.9473ZM599.816 62.0435C595.635 59.9357 591.464 57.8894 587.304 55.904L588.596 53.1965C592.776 55.1913 596.967 57.2471 601.167 59.3647L599.816 62.0435ZM574.855 50.13C570.491 48.1641 566.138 46.2652 561.799 44.4325L562.966 41.6688C567.328 43.5108 571.701 45.4192 576.087 47.3947L574.855 50.13ZM548.815 39.1302C544.5 37.4284 540.198 35.7921 535.91 34.2203L536.942 31.4036C541.253 32.9838 545.578 34.6288 549.915 36.3394L548.815 39.1302ZM522.644 29.548C518.164 28.0345 513.7 26.5915 509.252 25.2181L510.137 22.3516C514.61 23.7328 519.099 25.184 523.604 26.7058L522.644 29.548ZM495.958 21.3056C491.435 20.0401 486.93 18.8466 482.443 17.7241L483.171 14.8138C487.685 15.943 492.217 17.1436 496.766 18.4165L495.958 21.3056ZM468.729 14.501C464.177 13.5003 459.646 12.5728 455.134 11.7174L455.693 8.76995C460.233 9.63073 464.793 10.5641 469.373 11.571L468.729 14.501ZM441.371 9.32045C436.705 8.58023 432.062 7.91746 427.443 7.33091L427.821 4.35481C432.471 4.94529 437.144 5.61245 441.841 6.35751L441.371 9.32045ZM413.659 5.7987C408.978 5.35292 404.324 4.98577 399.695 4.69591L399.883 1.70178C404.544 1.99367 409.231 2.36338 413.943 2.81222L413.659 5.7987ZM385.683 4.05075C381.04 3.91445 376.425 3.85643 371.839 3.87531L371.826 0.875333C376.446 0.85632 381.094 0.914757 385.771 1.05205L385.683 4.05075ZM357.776 4.17627C353.093 4.35803 348.442 4.62062 343.824 4.9625L343.602 1.97068C348.256 1.62621 352.942 1.36164 357.66 1.17852L357.776 4.17627ZM330.009 6.23094C325.321 6.74549 320.669 7.34252 316.054 8.02037L315.618 5.05222C320.269 4.36906 324.958 3.76737 329.682 3.24885L330.009 6.23094ZM302.32 10.2947C297.718 11.1438 293.154 12.0742 288.631 13.0842L287.977 10.1563C292.537 9.13818 297.137 8.20034 301.775 7.34447L302.32 10.2947ZM275.029 16.3912C270.536 17.5737 266.086 18.8359 261.678 20.1758L260.805 17.3055C265.249 15.9546 269.736 14.6822 274.265 13.49L275.029 16.3912ZM248.32 24.5188C243.912 26.0464 239.551 27.6531 235.236 29.337L234.145 26.5423C238.496 24.8444 242.894 23.2244 247.337 21.6842L248.32 24.5188ZM222.33 34.6635C218.043 36.5309 213.806 38.4761 209.619 40.4971L208.315 37.7955C212.537 35.7576 216.809 33.7961 221.132 31.9131L222.33 34.6635ZM197.206 46.7896C193.073 48.9869 188.993 51.2598 184.967 53.6062L183.457 51.0144C187.516 48.6483 191.63 46.3563 195.798 44.1406L197.206 46.7896ZM173.057 60.864C169.12 63.3692 165.241 65.9467 161.419 68.5943L159.71 66.1283C163.564 63.4584 167.477 60.8593 171.446 58.3331L173.057 60.864ZM150.092 76.7727C146.37 79.5717 142.709 82.4393 139.108 85.3735L137.213 83.0479C140.844 80.0892 144.536 77.1975 148.289 74.3751L150.092 76.7727ZM128.444 94.4143C124.951 97.4936 121.522 100.638 118.157 103.845L116.087 101.673C119.48 98.4394 122.938 95.269 126.46 92.1641L128.444 94.4143ZM108.229 113.678C104.984 117.02 101.804 120.422 98.692 123.883L96.4613 121.877C99.5992 118.387 102.805 114.957 106.077 111.588L108.229 113.678ZM89.555 134.444C86.5763 138.023 83.6663 141.659 80.8262 145.35L78.4487 143.52C81.312 139.799 84.2459 136.134 87.2491 132.525L89.555 134.444ZM72.5182 156.582C69.8229 160.375 67.1988 164.22 64.6472 168.115L62.1377 166.471C64.7101 162.544 67.3556 158.668 70.0728 154.844L72.5182 156.582ZM57.211 179.948C54.8111 183.932 52.4846 187.963 50.2329 192.041L47.6068 190.59C49.8766 186.48 52.2219 182.416 54.6412 178.4L57.211 179.948ZM43.7097 204.395C41.6142 208.55 39.5944 212.749 37.6517 216.988L34.9244 215.739C36.8827 211.465 38.9187 207.233 41.0311 203.044L43.7097 204.395ZM32.0745 229.783C30.2928 234.088 28.589 238.43 26.9643 242.81L24.1516 241.766C25.7892 237.352 27.5066 232.975 29.3025 228.636L32.0745 229.783ZM22.3565 255.971C20.9005 260.39 19.5238 264.843 18.2277 269.328L15.3456 268.495C16.652 263.975 18.0396 259.487 19.5072 255.032L22.3565 255.971ZM14.5973 282.816C13.473 287.322 12.4291 291.857 11.4669 296.419L8.53152 295.8C9.50128 291.202 10.5534 286.631 11.6866 282.09L14.5973 282.816ZM8.82809 310.177C8.03913 314.741 7.33133 319.329 6.70579 323.941L3.73302 323.537C4.36343 318.89 5.07679 314.266 5.87194 309.666L8.82809 310.177ZM5.07735 337.84C4.62129 342.458 4.24738 347.096 3.95691 351.752L0.962741 351.566C1.25547 346.873 1.63226 342.199 2.09186 337.545L5.07735 337.84ZM3.33873 365.698C3.21612 370.356 3.17682 375.031 3.22208 379.721L0.222218 379.75C0.176643 375.024 0.216184 370.313 0.339782 365.619L3.33873 365.698ZM3.60316 393.624C3.81297 398.271 4.10598 402.931 4.48323 407.601L1.49296 407.842C1.11286 403.137 0.817624 398.442 0.606184 393.759L3.60316 393.624ZM5.85184 421.493C6.38662 426.093 7.00359 430.701 7.70375 435.316L4.73769 435.766C4.03232 431.117 3.41073 426.474 2.87191 421.839L5.85184 421.493ZM10.0548 449.179C10.9039 453.707 11.8337 458.239 12.8451 462.775L9.91701 463.428C8.89819 458.859 7.96159 454.293 7.10625 449.732L10.0548 449.179ZM16.1222 476.378C17.2873 480.878 18.5336 485.379 19.862 489.881L16.9847 490.73C15.6468 486.196 14.3915 481.662 13.218 477.13L16.1222 476.378ZM24.0153 503.145C25.4796 507.566 27.024 511.985 28.6495 516.401L25.8341 517.437C24.1973 512.99 22.6421 508.54 21.1675 504.089L24.0153 503.145ZM33.6765 529.409C35.41 533.689 37.2207 537.965 39.1095 542.236L36.3658 543.449C34.4643 539.15 32.6413 534.844 30.8959 530.535L33.6765 529.409ZM45.0109 555.031C47.003 559.178 49.07 563.319 51.2126 567.452L48.5492 568.832C46.3926 564.672 44.312 560.504 42.3067 556.33L45.0109 555.031ZM57.8206 579.742C60.0984 583.831 62.4515 587.91 64.8806 591.98L62.3046 593.518C59.8602 589.422 57.4922 585.317 55.1999 581.202L57.8206 579.742ZM72.1423 603.759C74.6253 607.661 77.1797 611.552 79.8059 615.433L77.3215 617.114C74.6794 613.211 72.1096 609.295 69.6113 605.37L72.1423 603.759ZM87.9014 627.038C90.5729 630.756 93.312 634.462 96.1192 638.156L93.7307 639.971C90.9074 636.256 88.1524 632.528 85.4651 628.788L87.9014 627.038ZM104.709 649.152C107.64 652.804 110.639 656.443 113.707 660.068L111.418 662.006C108.333 658.361 105.317 654.702 102.369 651.03L104.709 649.152ZM122.799 670.539C125.863 673.979 128.99 677.406 132.181 680.818L129.99 682.867C126.782 679.437 123.639 675.993 120.559 672.534L122.799 670.539Z" fill="#034D82" fill-opacity="0.19"/>
</svg>
